<?xml version="1.0" encoding="UTF-8"?>
<svg width="27px" height="33px" viewBox="0 0 27 33" version="1.1" xmlns="http://www.w3.org/2000/svg" xmlns:xlink="http://www.w3.org/1999/xlink">
    <!-- Generator: Sketch 49.1 (51147) - http://www.bohemiancoding.com/sketch -->
    <title>M sign/Grey</title>
    <desc>Created with Sketch.</desc>
    <defs></defs>
    <g id="Megagroup-ID" stroke="none" stroke-width="1" fill="none" fill-rule="evenodd">
        <g id="Megagroup" transform="translate(-141.000000, -115.000000)" fill="#828282">
            <g id="M-sign/Grey" transform="translate(141.000000, 115.000000)">
                <path fill="#000" d="M1.1420959,21.7111343 L1.45287184,20.1988058 L9.22929857,20.1988058 L8.91183621,21.7111343 L1.1420959,21.7111343 Z M0.628358392,24.2111343 L10.3404698,24.2111343 L10.3404698,24.2099991 L13.1372838,24.2099991 L14.8861023,15.0082368 C14.9067412,14.859803 14.9892967,14.5205257 15.1750467,14.5205257 C15.2782411,14.5205257 15.29888,14.7749837 15.3195189,15.0506465 L16.0831577,22.2178797 C16.1863521,23.2993262 16.4133799,24.211134 18.4566296,24.211134 C20.4998794,24.211134 21.0984071,23.2993262 21.655657,22.2178797 L24.5083618,16.6834983 L21.7846974,29.9376618 C21.3400836,32.1012852 19.2464621,33.3957657 17.1196701,32.8319359 L3.66033787,29.263758 C1.52852825,28.698598 0.160601943,26.4873767 0.6053996,24.3228586 L0.628358392,24.2111343 Z M1.6585478,19.1979252 L1.86386185,18.1988058 L9.64913113,18.1988058 L9.4393997,19.1979252 L1.6585478,19.1979252 Z M2.06953781,17.1979252 L2.27485186,16.1988058 L10.0689637,16.1988058 L9.85923226,17.1979252 L2.06953781,17.1979252 Z M2.48052782,15.1979252 L2.68584187,14.1988058 L10.4887963,14.1988058 L10.2790648,15.1979252 L2.48052782,15.1979252 Z M2.89151783,13.1979252 L3.09683188,12.1988058 L10.9086288,12.1988058 L10.6988974,13.1979252 L2.89151783,13.1979252 Z M3.30250784,11.1979252 L3.50782189,10.1988058 L11.7128487,10.1988058 C11.4795258,10.458646 11.2823369,10.7858771 11.1440219,11.1979252 L3.30250784,11.1979252 Z M3.71349785,9.19792524 L4.89624224,3.44233818 C5.34085605,1.27871476 7.43447758,-0.0157656656 9.56126953,0.54806409 L23.0206018,4.11624198 C25.1524114,4.68140196 26.5203377,6.89262331 26.0755401,9.05714141 L26.0097135,9.37747297 C25.1290448,9.61429131 24.2240345,10.171619 23.5544345,11.4882347 L19.9013517,18.6978776 C19.7981572,18.9099259 19.5504906,19.3764322 19.3234628,19.3764322 C19.0964351,19.3764322 19.0551573,18.9523356 19.0345184,18.6978776 L18.2708796,11.4882347 C18.0255937,9.17812457 16.1607867,9.20662155 14.9219936,9.20019608 L3.71349785,9.19792524 Z" id="Rectangle-2"></path>
            </g>
        </g>
    </g>
</svg>